<svg width="105" height="149" viewBox="0 0 105 149" fill="none" xmlns="http://www.w3.org/2000/svg">
<path d="M17.088 108V55.296L5.376 58.176L2.304 46.08L21.6 40.32H31.68V108H17.088ZM73.044 109.152C64.916 109.152 58.452 106.752 53.652 101.952C48.34 96.64 45.684 88.096 45.684 76.32C45.684 65.44 48.18 56.608 53.172 49.824C58.164 43.04 65.492 39.648 75.156 39.648C82.964 39.648 89.972 42.112 96.18 47.04L88.404 58.464C85.972 56.608 83.732 55.264 81.684 54.432C79.7 53.536 77.364 53.088 74.676 53.088C70.708 53.088 67.572 54.528 65.268 57.408C63.028 60.224 61.652 63.968 61.14 68.64C65.492 65.76 70.132 64.32 75.06 64.32C81.972 64.32 87.636 66.208 92.052 69.984C96.468 73.76 98.676 79.072 98.676 85.92C98.676 92.704 96.244 98.272 91.38 102.624C86.516 106.976 80.404 109.152 73.044 109.152ZM63.924 93.696C66.036 95.552 68.884 96.48 72.468 96.48C76.052 96.48 78.868 95.552 80.916 93.696C82.964 91.84 83.988 89.408 83.988 86.4C83.988 83.52 82.932 81.184 80.82 79.392C78.708 77.536 75.86 76.608 72.276 76.608C68.692 76.608 65.876 77.504 63.828 79.296C61.78 81.088 60.756 83.488 60.756 86.496C60.756 89.376 61.812 91.776 63.924 93.696Z" fill="#FFC617"/>
<path d="M52 0L90.9711 26.25H13.0289L52 0Z" fill="#FFC617"/>
<path d="M52 149L13.0289 122.75L90.9711 122.75L52 149Z" fill="#E4E4E4"/>
</svg>
