<svg width="24" height="24" viewBox="0 0 24 24" fill="none" xmlns="http://www.w3.org/2000/svg">
<path d="M22.0827 11.3953C21.2588 9.65951 20.2783 8.24389 19.1413 7.14842L17.9488 8.34092C18.9212 9.27022 19.7683 10.4859 20.5007 12C18.5507 16.0359 15.7827 17.9531 11.9999 17.9531C10.8644 17.9531 9.81856 17.7783 8.86231 17.4286L7.5702 18.7207C8.89833 19.334 10.3749 19.6406 11.9999 19.6406C16.5046 19.6406 19.8655 17.2945 22.0827 12.6023C22.1718 12.4136 22.2181 12.2075 22.2181 11.9988C22.2181 11.7901 22.1718 11.584 22.0827 11.3953ZM20.5928 3.88029L19.5936 2.87998C19.5762 2.86255 19.5555 2.84872 19.5328 2.83928C19.51 2.82985 19.4856 2.82499 19.461 2.82499C19.4363 2.82499 19.4119 2.82985 19.3892 2.83928C19.3664 2.84872 19.3457 2.86255 19.3283 2.87998L16.765 5.44217C15.3517 4.72029 13.7633 4.35936 11.9999 4.35936C7.4952 4.35936 4.13427 6.70545 1.91708 11.3976C1.82796 11.5863 1.78174 11.7925 1.78174 12.0012C1.78174 12.2098 1.82796 12.416 1.91708 12.6047C2.80286 14.4703 3.86927 15.9657 5.1163 17.0908L2.63614 19.5703C2.601 19.6055 2.58127 19.6531 2.58127 19.7028C2.58127 19.7525 2.601 19.8002 2.63614 19.8354L3.63669 20.8359C3.67185 20.8711 3.71952 20.8908 3.76923 20.8908C3.81893 20.8908 3.86661 20.8711 3.90177 20.8359L20.5928 4.14561C20.6102 4.12819 20.624 4.10751 20.6335 4.08475C20.6429 4.06199 20.6478 4.03759 20.6478 4.01295C20.6478 3.98831 20.6429 3.96391 20.6335 3.94115C20.624 3.91839 20.6102 3.89771 20.5928 3.88029ZM3.49911 12C5.45145 7.96404 8.21942 6.04686 11.9999 6.04686C13.2782 6.04686 14.4404 6.26623 15.4949 6.71225L13.8472 8.3599C13.0669 7.94357 12.1735 7.78905 11.2987 7.91915C10.4238 8.04925 9.61401 8.45707 8.98862 9.08246C8.36323 9.70785 7.95541 10.5177 7.82531 11.3925C7.69521 12.2673 7.84973 13.1608 8.26606 13.9411L6.31091 15.8962C5.2288 14.9412 4.29598 13.6472 3.49911 12ZM9.28114 12C9.28155 11.5867 9.37944 11.1793 9.56687 10.811C9.75429 10.4426 10.026 10.1237 10.3598 9.88008C10.6937 9.63646 11.0803 9.47502 11.4882 9.40888C11.8962 9.34274 12.314 9.37376 12.7077 9.49943L9.40559 12.8015C9.32283 12.5424 9.28084 12.272 9.28114 12Z" fill="#FFC617"/>
<path d="M11.9064 14.6251C11.8253 14.6251 11.7454 14.6213 11.6662 14.614L10.4282 15.852C11.1728 16.1372 11.9841 16.2005 12.7639 16.0345C13.5437 15.8684 14.2588 15.48 14.8225 14.9162C15.3863 14.3524 15.7747 13.6374 15.9408 12.8575C16.1069 12.0777 16.0435 11.2664 15.7584 10.5219L14.5204 11.7598C14.5277 11.839 14.5314 11.919 14.5314 12.0001C14.5316 12.3448 14.4638 12.6863 14.332 13.0048C14.2001 13.3234 14.0068 13.6128 13.763 13.8566C13.5192 14.1004 13.2298 14.2938 12.9112 14.4256C12.5926 14.5575 12.2512 14.6252 11.9064 14.6251Z" fill="#FFC617"/>
</svg>
