<svg width="35" height="234" viewBox="0 0 35 234" fill="none" xmlns="http://www.w3.org/2000/svg">
<path opacity="0.5" d="M32 226C32 228.761 29.7614 231 27 231H7C4.23858 231 2 228.761 2 226L2 206C2 203.239 4.23858 201 7 201H27C29.7614 201 32 203.239 32 206V226Z" fill="#E4E4E4"/>
<rect x="7" y="218" width="4" height="20" rx="2" transform="rotate(-90 7 218)" fill="#616161"/>
<path d="M2 8C2 5.23858 4.23858 3 7 3H27C29.7614 3 32 5.23858 32 8V28C32 30.7614 29.7614 33 27 33H7C4.23858 33 2 30.7614 2 28V8Z" fill="#E4E4E4"/>
<rect x="7" y="20" width="4" height="20" rx="2" transform="rotate(-90 7 20)" fill="#616161"/>
<rect x="15" y="8" width="4" height="20" rx="2" fill="#616161"/>
<rect x="14" y="42" width="6" height="150" rx="3" fill="#616161"/>
<rect x="14" y="146" width="6" height="46" rx="3" fill="#FFC617"/>
<rect x="8" y="151" width="8" height="18" rx="3" transform="rotate(-90 8 151)" fill="#FFC617"/>
</svg>
