<svg width="20" height="20" viewBox="0 0 20 20" fill="none" xmlns="http://www.w3.org/2000/svg">
<path d="M19.3242 15.7606L16.02 12.4688C16.6208 11.2718 17.0213 9.87531 17.0213 8.4788C17.0213 3.79052 13.2165 0 8.51064 0C3.80476 0 0 3.79052 0 8.4788C0 13.1671 3.80476 16.9576 8.51064 16.9576C9.91239 16.9576 11.3141 16.5586 12.5156 15.9601L15.8198 19.2519C16.821 20.2494 18.3229 20.2494 19.3242 19.2519C20.2253 18.2544 20.2253 16.7581 19.3242 15.7606ZM8.51064 14.9626C4.90613 14.9626 2.0025 12.0698 2.0025 8.4788C2.0025 4.88778 4.90613 1.99501 8.51064 1.99501C12.1151 1.99501 15.0188 4.88778 15.0188 8.4788C15.0188 12.0698 12.1151 14.9626 8.51064 14.9626Z" fill="#4B4B4B"/>
</svg>
