<svg width="864" height="189" viewBox="0 0 864 189" fill="none" xmlns="http://www.w3.org/2000/svg">
<rect width="55" height="90" rx="8" transform="matrix(0 1 1 0 0 33)" fill="#FFC617"/>
<path d="M31 33H58V16C58 14.3431 56.6569 13 55 13H34C32.3431 13 31 14.3431 31 16V33Z" fill="#616161"/>
<ellipse rx="14.5" ry="6" transform="matrix(1 0 0 -1 44.5 12)" fill="#616161"/>
<path d="M58 13.5C58 11.0147 51.9558 9 44.5 9C37.0442 9 31 11.0147 31 13.5C31 14.7504 31.53 16.8817 34 17.6972C36.4393 18.5026 40.7954 19 44.5 19C48.2046 19 52.5607 18.5026 55 17.6972C57.47 16.8817 58 14.7504 58 13.5Z" fill="#484848"/>
<path d="M58 29.3333C58 30.8061 59.1939 32 60.6667 32C61.403 32 62 31.403 62 30.6667V21.6667C62 20.1939 60.8061 19 59.3333 19C58.597 19 58 19.597 58 20.3333V29.3333Z" fill="#484848"/>
<path d="M27 30.6667C27 31.403 27.597 32 28.3333 32C29.8061 32 31 30.8061 31 29.3333V20.3333C31 19.597 30.403 19 29.6667 19C28.1939 19 27 20.1939 27 21.6667V30.6667Z" fill="#484848"/>
<rect width="55" height="90" rx="8" transform="matrix(0 1 1 0 96 33)" fill="#FFC617"/>
<path d="M127 33H154V16C154 14.3431 152.657 13 151 13H130C128.343 13 127 14.3431 127 16V33Z" fill="#616161"/>
<ellipse rx="14.5" ry="6" transform="matrix(1 0 0 -1 140.5 12)" fill="#616161"/>
<path d="M154 13.5C154 11.0147 147.956 9 140.5 9C133.044 9 127 11.0147 127 13.5C127 14.7504 127.53 16.8817 130 17.6972C132.439 18.5026 136.795 19 140.5 19C144.205 19 148.561 18.5026 151 17.6972C153.47 16.8817 154 14.7504 154 13.5Z" fill="#484848"/>
<path d="M154 29.3333C154 30.8061 155.194 32 156.667 32C157.403 32 158 31.403 158 30.6667V21.6667C158 20.1939 156.806 19 155.333 19C154.597 19 154 19.597 154 20.3333V29.3333Z" fill="#484848"/>
<path d="M123 30.6667C123 31.403 123.597 32 124.333 32C125.806 32 127 30.8061 127 29.3333V20.3333C127 19.597 126.403 19 125.667 19C124.194 19 123 20.1939 123 21.6667V30.6667Z" fill="#484848"/>
<rect width="55" height="90" rx="8" transform="matrix(0 1 1 0 192 33)" fill="#FFC617"/>
<path d="M223 33H250V16C250 14.3431 248.657 13 247 13H226C224.343 13 223 14.3431 223 16V33Z" fill="#616161"/>
<ellipse rx="14.5" ry="6" transform="matrix(1 0 0 -1 236.5 12)" fill="#616161"/>
<path d="M250 13.5C250 11.0147 243.956 9 236.5 9C229.044 9 223 11.0147 223 13.5C223 14.7504 223.53 16.8817 226 17.6972C228.439 18.5026 232.795 19 236.5 19C240.205 19 244.561 18.5026 247 17.6972C249.47 16.8817 250 14.7504 250 13.5Z" fill="#484848"/>
<path d="M250 29.3333C250 30.8061 251.194 32 252.667 32C253.403 32 254 31.403 254 30.6667V21.6667C254 20.1939 252.806 19 251.333 19C250.597 19 250 19.597 250 20.3333V29.3333Z" fill="#484848"/>
<path d="M219 30.6667C219 31.403 219.597 32 220.333 32C221.806 32 223 30.8061 223 29.3333V20.3333C223 19.597 222.403 19 221.667 19C220.194 19 219 20.1939 219 21.6667V30.6667Z" fill="#484848"/>
<rect width="55" height="90" rx="8" transform="matrix(0 1 1 0 288 33)" fill="#FFC617"/>
<path d="M319 33H346V16C346 14.3431 344.657 13 343 13H322C320.343 13 319 14.3431 319 16V33Z" fill="#616161"/>
<ellipse rx="14.5" ry="6" transform="matrix(1 0 0 -1 332.5 12)" fill="#616161"/>
<path d="M346 13.5C346 11.0147 339.956 9 332.5 9C325.044 9 319 11.0147 319 13.5C319 14.7504 319.53 16.8817 322 17.6972C324.439 18.5026 328.795 19 332.5 19C336.205 19 340.561 18.5026 343 17.6972C345.47 16.8817 346 14.7504 346 13.5Z" fill="#484848"/>
<path d="M346 29.3333C346 30.8061 347.194 32 348.667 32C349.403 32 350 31.403 350 30.6667V21.6667C350 20.1939 348.806 19 347.333 19C346.597 19 346 19.597 346 20.3333V29.3333Z" fill="#484848"/>
<path d="M315 30.6667C315 31.403 315.597 32 316.333 32C317.806 32 319 30.8061 319 29.3333V20.3333C319 19.597 318.403 19 317.667 19C316.194 19 315 20.1939 315 21.6667V30.6667Z" fill="#484848"/>
<rect y="162" width="55" height="90" rx="8" transform="rotate(-90 0 162)" fill="#FFC617"/>
<path d="M31 162H58V179C58 180.657 56.6569 182 55 182H34C32.3431 182 31 180.657 31 179V162Z" fill="#616161"/>
<ellipse cx="44.5" cy="183" rx="14.5" ry="6" fill="#616161"/>
<path d="M58 181.5C58 183.985 51.9558 186 44.5 186C37.0442 186 31 183.985 31 181.5C31 180.25 31.53 178.118 34 177.303C36.4393 176.497 40.7954 176 44.5 176C48.2046 176 52.5607 176.497 55 177.303C57.47 178.118 58 180.25 58 181.5Z" fill="#484848"/>
<path d="M58 165.667C58 164.194 59.1939 163 60.6667 163C61.403 163 62 163.597 62 164.333V173.333C62 174.806 60.8061 176 59.3333 176C58.597 176 58 175.403 58 174.667V165.667Z" fill="#484848"/>
<path d="M27 164.333C27 163.597 27.597 163 28.3333 163C29.8061 163 31 164.194 31 165.667V174.667C31 175.403 30.403 176 29.6667 176C28.1939 176 27 174.806 27 173.333V164.333Z" fill="#484848"/>
<rect x="96" y="162" width="55" height="90" rx="8" transform="rotate(-90 96 162)" fill="#FFC617"/>
<path d="M127 162H154V179C154 180.657 152.657 182 151 182H130C128.343 182 127 180.657 127 179V162Z" fill="#616161"/>
<ellipse cx="140.5" cy="183" rx="14.5" ry="6" fill="#616161"/>
<path d="M154 181.5C154 183.985 147.956 186 140.5 186C133.044 186 127 183.985 127 181.5C127 180.25 127.53 178.118 130 177.303C132.439 176.497 136.795 176 140.5 176C144.205 176 148.561 176.497 151 177.303C153.47 178.118 154 180.25 154 181.5Z" fill="#484848"/>
<path d="M154 165.667C154 164.194 155.194 163 156.667 163C157.403 163 158 163.597 158 164.333V173.333C158 174.806 156.806 176 155.333 176C154.597 176 154 175.403 154 174.667V165.667Z" fill="#484848"/>
<path d="M123 164.333C123 163.597 123.597 163 124.333 163C125.806 163 127 164.194 127 165.667V174.667C127 175.403 126.403 176 125.667 176C124.194 176 123 174.806 123 173.333V164.333Z" fill="#484848"/>
<rect x="192" y="162" width="55" height="90" rx="8" transform="rotate(-90 192 162)" fill="#FFC617"/>
<path d="M223 162H250V179C250 180.657 248.657 182 247 182H226C224.343 182 223 180.657 223 179V162Z" fill="#616161"/>
<ellipse cx="236.5" cy="183" rx="14.5" ry="6" fill="#616161"/>
<path d="M250 181.5C250 183.985 243.956 186 236.5 186C229.044 186 223 183.985 223 181.5C223 180.25 223.53 178.118 226 177.303C228.439 176.497 232.795 176 236.5 176C240.205 176 244.561 176.497 247 177.303C249.47 178.118 250 180.25 250 181.5Z" fill="#484848"/>
<path d="M250 165.667C250 164.194 251.194 163 252.667 163C253.403 163 254 163.597 254 164.333V173.333C254 174.806 252.806 176 251.333 176C250.597 176 250 175.403 250 174.667V165.667Z" fill="#484848"/>
<path d="M219 164.333C219 163.597 219.597 163 220.333 163C221.806 163 223 164.194 223 165.667V174.667C223 175.403 222.403 176 221.667 176C220.194 176 219 174.806 219 173.333V164.333Z" fill="#484848"/>
<rect x="288" y="162" width="55" height="90" rx="8" transform="rotate(-90 288 162)" fill="#FFC617"/>
<path d="M319 162H346V179C346 180.657 344.657 182 343 182H322C320.343 182 319 180.657 319 179V162Z" fill="#616161"/>
<ellipse cx="332.5" cy="183" rx="14.5" ry="6" fill="#616161"/>
<path d="M346 181.5C346 183.985 339.956 186 332.5 186C325.044 186 319 183.985 319 181.5C319 180.25 319.53 178.118 322 177.303C324.439 176.497 328.795 176 332.5 176C336.205 176 340.561 176.497 343 177.303C345.47 178.118 346 180.25 346 181.5Z" fill="#484848"/>
<path d="M346 165.667C346 164.194 347.194 163 348.667 163C349.403 163 350 163.597 350 164.333V173.333C350 174.806 348.806 176 347.333 176C346.597 176 346 175.403 346 174.667V165.667Z" fill="#484848"/>
<path d="M315 164.333C315 163.597 315.597 163 316.333 163C317.806 163 319 164.194 319 165.667V174.667C319 175.403 318.403 176 317.667 176C316.194 176 315 174.806 315 173.333V164.333Z" fill="#484848"/>
<rect width="55" height="90" rx="8" transform="matrix(0 1 1 0 486 27)" fill="#FFC617"/>
<path d="M517 27H544V10C544 8.34315 542.657 7 541 7H520C518.343 7 517 8.34315 517 10V27Z" fill="#616161"/>
<ellipse rx="14.5" ry="6" transform="matrix(1 0 0 -1 530.5 6)" fill="#616161"/>
<path d="M544 7.5C544 5.01472 537.956 3 530.5 3C523.044 3 517 5.01472 517 7.5C517 8.75041 517.53 10.8817 520 11.6972C522.439 12.5026 526.795 13 530.5 13C534.205 13 538.561 12.5026 541 11.6972C543.47 10.8817 544 8.75041 544 7.5Z" fill="#484848"/>
<path d="M544 23.3333C544 24.8061 545.194 26 546.667 26C547.403 26 548 25.403 548 24.6667V15.6667C548 14.1939 546.806 13 545.333 13C544.597 13 544 13.597 544 14.3333V23.3333Z" fill="#484848"/>
<path d="M513 24.6667C513 25.403 513.597 26 514.333 26C515.806 26 517 24.8061 517 23.3333V14.3333C517 13.597 516.403 13 515.667 13C514.194 13 513 14.1939 513 15.6667V24.6667Z" fill="#484848"/>
<rect width="55" height="90" rx="8" transform="matrix(0 1 1 0 582 27)" fill="#FFC617"/>
<path d="M613 27H640V10C640 8.34315 638.657 7 637 7H616C614.343 7 613 8.34315 613 10V27Z" fill="#616161"/>
<ellipse rx="14.5" ry="6" transform="matrix(1 0 0 -1 626.5 6)" fill="#616161"/>
<path d="M640 7.5C640 5.01472 633.956 3 626.5 3C619.044 3 613 5.01472 613 7.5C613 8.75041 613.53 10.8817 616 11.6972C618.439 12.5026 622.795 13 626.5 13C630.205 13 634.561 12.5026 637 11.6972C639.47 10.8817 640 8.75041 640 7.5Z" fill="#484848"/>
<path d="M640 23.3333C640 24.8061 641.194 26 642.667 26C643.403 26 644 25.403 644 24.6667V15.6667C644 14.1939 642.806 13 641.333 13C640.597 13 640 13.597 640 14.3333V23.3333Z" fill="#484848"/>
<path d="M609 24.6667C609 25.403 609.597 26 610.333 26C611.806 26 613 24.8061 613 23.3333V14.3333C613 13.597 612.403 13 611.667 13C610.194 13 609 14.1939 609 15.6667V24.6667Z" fill="#484848"/>
<rect width="55" height="90" rx="8" transform="matrix(0 1 1 0 678 27)" fill="#FFC617"/>
<path d="M709 27H736V10C736 8.34315 734.657 7 733 7H712C710.343 7 709 8.34315 709 10V27Z" fill="#616161"/>
<ellipse rx="14.5" ry="6" transform="matrix(1 0 0 -1 722.5 6)" fill="#616161"/>
<path d="M736 7.5C736 5.01472 729.956 3 722.5 3C715.044 3 709 5.01472 709 7.5C709 8.75041 709.53 10.8817 712 11.6972C714.439 12.5026 718.795 13 722.5 13C726.205 13 730.561 12.5026 733 11.6972C735.47 10.8817 736 8.75041 736 7.5Z" fill="#484848"/>
<path d="M736 23.3333C736 24.8061 737.194 26 738.667 26C739.403 26 740 25.403 740 24.6667V15.6667C740 14.1939 738.806 13 737.333 13C736.597 13 736 13.597 736 14.3333V23.3333Z" fill="#484848"/>
<path d="M705 24.6667C705 25.403 705.597 26 706.333 26C707.806 26 709 24.8061 709 23.3333V14.3333C709 13.597 708.403 13 707.667 13C706.194 13 705 14.1939 705 15.6667V24.6667Z" fill="#484848"/>
<rect width="55" height="90" rx="8" transform="matrix(0 1 1 0 774 27)" fill="#FFC617"/>
<path d="M805 27H832V10C832 8.34315 830.657 7 829 7H808C806.343 7 805 8.34315 805 10V27Z" fill="#616161"/>
<ellipse rx="14.5" ry="6" transform="matrix(1 0 0 -1 818.5 6)" fill="#616161"/>
<path d="M832 7.5C832 5.01472 825.956 3 818.5 3C811.044 3 805 5.01472 805 7.5C805 8.75041 805.53 10.8817 808 11.6972C810.439 12.5026 814.795 13 818.5 13C822.205 13 826.561 12.5026 829 11.6972C831.47 10.8817 832 8.75041 832 7.5Z" fill="#484848"/>
<path d="M832 23.3333C832 24.8061 833.194 26 834.667 26C835.403 26 836 25.403 836 24.6667V15.6667C836 14.1939 834.806 13 833.333 13C832.597 13 832 13.597 832 14.3333V23.3333Z" fill="#484848"/>
<path d="M801 24.6667C801 25.403 801.597 26 802.333 26C803.806 26 805 24.8061 805 23.3333V14.3333C805 13.597 804.403 13 803.667 13C802.194 13 801 14.1939 801 15.6667V24.6667Z" fill="#484848"/>
<rect x="486" y="156" width="55" height="90" rx="8" transform="rotate(-90 486 156)" fill="#FFC617"/>
<path d="M517 156H544V173C544 174.657 542.657 176 541 176H520C518.343 176 517 174.657 517 173V156Z" fill="#616161"/>
<ellipse cx="530.5" cy="177" rx="14.5" ry="6" fill="#616161"/>
<path d="M544 175.5C544 177.985 537.956 180 530.5 180C523.044 180 517 177.985 517 175.5C517 174.25 517.53 172.118 520 171.303C522.439 170.497 526.795 170 530.5 170C534.205 170 538.561 170.497 541 171.303C543.47 172.118 544 174.25 544 175.5Z" fill="#484848"/>
<path d="M544 159.667C544 158.194 545.194 157 546.667 157C547.403 157 548 157.597 548 158.333V167.333C548 168.806 546.806 170 545.333 170C544.597 170 544 169.403 544 168.667V159.667Z" fill="#484848"/>
<path d="M513 158.333C513 157.597 513.597 157 514.333 157C515.806 157 517 158.194 517 159.667V168.667C517 169.403 516.403 170 515.667 170C514.194 170 513 168.806 513 167.333V158.333Z" fill="#484848"/>
<rect x="582" y="156" width="55" height="90" rx="8" transform="rotate(-90 582 156)" fill="#FFC617"/>
<path d="M613 156H640V173C640 174.657 638.657 176 637 176H616C614.343 176 613 174.657 613 173V156Z" fill="#616161"/>
<ellipse cx="626.5" cy="177" rx="14.5" ry="6" fill="#616161"/>
<path d="M640 175.5C640 177.985 633.956 180 626.5 180C619.044 180 613 177.985 613 175.5C613 174.25 613.53 172.118 616 171.303C618.439 170.497 622.795 170 626.5 170C630.205 170 634.561 170.497 637 171.303C639.47 172.118 640 174.25 640 175.5Z" fill="#484848"/>
<path d="M640 159.667C640 158.194 641.194 157 642.667 157C643.403 157 644 157.597 644 158.333V167.333C644 168.806 642.806 170 641.333 170C640.597 170 640 169.403 640 168.667V159.667Z" fill="#484848"/>
<path d="M609 158.333C609 157.597 609.597 157 610.333 157C611.806 157 613 158.194 613 159.667V168.667C613 169.403 612.403 170 611.667 170C610.194 170 609 168.806 609 167.333V158.333Z" fill="#484848"/>
<rect x="678" y="156" width="55" height="90" rx="8" transform="rotate(-90 678 156)" fill="#FFC617"/>
<path d="M709 156H736V173C736 174.657 734.657 176 733 176H712C710.343 176 709 174.657 709 173V156Z" fill="#616161"/>
<ellipse cx="722.5" cy="177" rx="14.5" ry="6" fill="#616161"/>
<path d="M736 175.5C736 177.985 729.956 180 722.5 180C715.044 180 709 177.985 709 175.5C709 174.25 709.53 172.118 712 171.303C714.439 170.497 718.795 170 722.5 170C726.205 170 730.561 170.497 733 171.303C735.47 172.118 736 174.25 736 175.5Z" fill="#484848"/>
<path d="M736 159.667C736 158.194 737.194 157 738.667 157C739.403 157 740 157.597 740 158.333V167.333C740 168.806 738.806 170 737.333 170C736.597 170 736 169.403 736 168.667V159.667Z" fill="#484848"/>
<path d="M705 158.333C705 157.597 705.597 157 706.333 157C707.806 157 709 158.194 709 159.667V168.667C709 169.403 708.403 170 707.667 170C706.194 170 705 168.806 705 167.333V158.333Z" fill="#484848"/>
<rect x="774" y="156" width="55" height="90" rx="8" transform="rotate(-90 774 156)" fill="#FFC617"/>
<path d="M805 156H832V173C832 174.657 830.657 176 829 176H808C806.343 176 805 174.657 805 173V156Z" fill="#616161"/>
<ellipse cx="818.5" cy="177" rx="14.5" ry="6" fill="#616161"/>
<path d="M832 175.5C832 177.985 825.956 180 818.5 180C811.044 180 805 177.985 805 175.5C805 174.25 805.53 172.118 808 171.303C810.439 170.497 814.795 170 818.5 170C822.205 170 826.561 170.497 829 171.303C831.47 172.118 832 174.25 832 175.5Z" fill="#484848"/>
<path d="M832 159.667C832 158.194 833.194 157 834.667 157C835.403 157 836 157.597 836 158.333V167.333C836 168.806 834.806 170 833.333 170C832.597 170 832 169.403 832 168.667V159.667Z" fill="#484848"/>
<path d="M801 158.333C801 157.597 801.597 157 802.333 157C803.806 157 805 158.194 805 159.667V168.667C805 169.403 804.403 170 803.667 170C802.194 170 801 168.806 801 167.333V158.333Z" fill="#484848"/>
</svg>
